G04*
G04 #@! TF.GenerationSoftware,Altium Limited,CircuitMaker,2.2.1 (2.2.1.6)*
G04*
G04 Layer_Color=15132400*
%FSLAX25Y25*%
%MOIN*%
G70*
G04*
G04 #@! TF.SameCoordinates,7785A121-3EC8-4D8B-A962-A870CC3C064B*
G04*
G04*
G04 #@! TF.FilePolarity,Positive*
G04*
G01*
G75*
%ADD10C,0.01000*%
%ADD11C,0.00984*%
%ADD12C,0.00787*%
G36*
X617500Y403000D02*
X612500D01*
X615000Y407000D01*
X617500Y403000D01*
D02*
G37*
G36*
Y433000D02*
X612500D01*
X615000Y437000D01*
X617500Y433000D01*
D02*
G37*
G36*
Y463000D02*
X612500D01*
X615000Y467000D01*
X617500Y463000D01*
D02*
G37*
D10*
X721207Y330000D02*
G03*
X721207Y330000I-707J0D01*
G01*
X713500Y323000D02*
Y328500D01*
X697500D02*
X713500D01*
X697500Y323000D02*
Y328500D01*
X670000Y322500D02*
X740000D01*
Y495000D01*
X670000Y322500D02*
Y495000D01*
X740000D01*
X560000Y326500D02*
Y353500D01*
X570000D01*
Y326500D02*
Y353500D01*
X560000Y326500D02*
X570000D01*
X650000D02*
Y353500D01*
X660000D01*
Y326500D02*
Y353500D01*
X650000Y326500D02*
X660000D01*
X430000Y317500D02*
X530000D01*
X430000Y482500D02*
X530000D01*
Y317500D02*
Y366500D01*
Y433500D02*
Y482000D01*
X430000Y317500D02*
Y366500D01*
Y433500D02*
Y482000D01*
X483500Y366500D02*
X530000D01*
X483500Y433500D02*
X530000D01*
X483500Y366500D02*
Y433500D01*
X430000D02*
X476500D01*
X430000Y366500D02*
X476500D01*
Y433500D01*
X560000Y386500D02*
Y413500D01*
X570000D01*
Y386500D02*
Y413500D01*
X560000Y386500D02*
X570000D01*
X650000D02*
Y413500D01*
X660000D01*
Y386500D02*
Y413500D01*
X650000Y386500D02*
X660000D01*
X280000Y317500D02*
X380000D01*
X280000Y482500D02*
X380000D01*
Y317500D02*
Y366500D01*
Y433500D02*
Y482000D01*
X280000Y317500D02*
Y366500D01*
Y433500D02*
Y482000D01*
X333500Y366500D02*
X380000D01*
X333500Y433500D02*
X380000D01*
X333500Y366500D02*
Y433500D01*
X280000D02*
X326500D01*
X280000Y366500D02*
X326500D01*
Y433500D01*
X570000Y446500D02*
Y473500D01*
X560000Y446500D02*
X570000D01*
X560000D02*
Y473500D01*
X570000D01*
X650000Y446500D02*
Y473500D01*
X660000D01*
Y446500D02*
Y473500D01*
X650000Y446500D02*
X660000D01*
X130000Y317500D02*
X230000D01*
X130000Y482500D02*
X230000D01*
Y317500D02*
Y366500D01*
Y433500D02*
Y482000D01*
X130000Y317500D02*
Y366500D01*
Y433500D02*
Y482000D01*
X183500Y366500D02*
X230000D01*
X183500Y433500D02*
X230000D01*
X183500Y366500D02*
Y433500D01*
X130000D02*
X176500D01*
X130000Y366500D02*
X176500D01*
Y433500D01*
X116501Y436000D02*
X116001Y436500D01*
Y437500D01*
X116501Y437999D01*
X117001D01*
X117500Y437500D01*
X118000Y437999D01*
X118500D01*
X119000Y437500D01*
Y436500D01*
X118500Y436000D01*
X118000D01*
X117500Y436500D01*
X117001Y436000D01*
X116501D01*
X117500Y436500D02*
Y437500D01*
X119000Y438999D02*
X118500D01*
Y439499D01*
X119000D01*
Y438999D01*
X116001Y443498D02*
Y441498D01*
X117500D01*
X117001Y442498D01*
Y442998D01*
X117500Y443498D01*
X118500D01*
X119000Y442998D01*
Y441998D01*
X118500Y441498D01*
X119000Y444497D02*
X117001D01*
X116001Y445497D01*
X117001Y446497D01*
X119000D01*
X117500D01*
Y444497D01*
X116001Y450495D02*
Y452495D01*
Y451495D01*
X119000D01*
Y453994D02*
Y454994D01*
X118500Y455494D01*
X117500D01*
X117001Y454994D01*
Y453994D01*
X117500Y453494D01*
X118500D01*
X119000Y453994D01*
X116501Y456993D02*
X117001D01*
Y456493D01*
Y457493D01*
Y456993D01*
X118500D01*
X119000Y457493D01*
X117001Y459492D02*
Y460492D01*
X117500Y460992D01*
X119000D01*
Y459492D01*
X118500Y458993D01*
X118000Y459492D01*
Y460992D01*
X119000Y461992D02*
Y462991D01*
Y462491D01*
X116001D01*
Y461992D01*
X119000Y467490D02*
X116001D01*
X117001Y468490D01*
X116001Y469489D01*
X119000D01*
Y470489D02*
X117001D01*
X116001Y471489D01*
X117001Y472488D01*
X119000D01*
X117500D01*
Y470489D01*
X116001Y473488D02*
X119000Y475487D01*
X116001D02*
X119000Y473488D01*
X108000Y437999D02*
Y436000D01*
X106001Y437999D01*
X105501D01*
X105001Y437500D01*
Y436500D01*
X105501Y436000D01*
X108000Y438999D02*
X107501D01*
Y439499D01*
X108000D01*
Y438999D01*
X105501Y441498D02*
X105001Y441998D01*
Y442998D01*
X105501Y443498D01*
X106001D01*
X106501Y442998D01*
X107001Y443498D01*
X107501D01*
X108000Y442998D01*
Y441998D01*
X107501Y441498D01*
X107001D01*
X106501Y441998D01*
X106001Y441498D01*
X105501D01*
X106501Y441998D02*
Y442998D01*
X108000Y444497D02*
X106001D01*
X105001Y445497D01*
X106001Y446497D01*
X108000D01*
X106501D01*
Y444497D01*
X109000Y450495D02*
X106001D01*
Y451995D01*
X106501Y452495D01*
X107501D01*
X108000Y451995D01*
Y450495D01*
Y454994D02*
Y453994D01*
X107501Y453494D01*
X106501D01*
X106001Y453994D01*
Y454994D01*
X106501Y455494D01*
X107001D01*
Y453494D01*
X106001Y456493D02*
X108000D01*
X107001D01*
X106501Y456993D01*
X106001Y457493D01*
Y457993D01*
Y464491D02*
Y462991D01*
X106501Y462491D01*
X107501D01*
X108000Y462991D01*
Y464491D01*
X105001Y465490D02*
X108000D01*
X106501D01*
X106001Y465990D01*
Y466990D01*
X106501Y467490D01*
X108000D01*
X106001Y468989D02*
Y469989D01*
X106501Y470489D01*
X108000D01*
Y468989D01*
X107501Y468490D01*
X107001Y468989D01*
Y470489D01*
X108000Y471489D02*
X106001D01*
Y472988D01*
X106501Y473488D01*
X108000D01*
Y474488D02*
X106001D01*
Y475987D01*
X106501Y476487D01*
X108000D01*
Y478986D02*
Y477986D01*
X107501Y477487D01*
X106501D01*
X106001Y477986D01*
Y478986D01*
X106501Y479486D01*
X107001D01*
Y477487D01*
X108000Y480486D02*
Y481485D01*
Y480985D01*
X105001D01*
Y480486D01*
X108000Y485984D02*
X105001D01*
X106001Y486983D01*
X105001Y487983D01*
X108000D01*
Y488983D02*
X106001D01*
X105001Y489983D01*
X106001Y490982D01*
X108000D01*
X106501D01*
Y488983D01*
X105001Y491982D02*
X108000Y493981D01*
X105001D02*
X108000Y491982D01*
X631000Y306998D02*
Y301000D01*
Y303999D01*
X634999D01*
Y306998D01*
Y301000D01*
X636998D02*
Y304999D01*
X638997Y306998D01*
X640997Y304999D01*
Y301000D01*
Y303999D01*
X636998D01*
X648994Y301000D02*
Y306998D01*
X651993D01*
X652993Y305998D01*
Y303999D01*
X651993Y302999D01*
X648994D01*
X650993D02*
X652993Y301000D01*
X658991Y305998D02*
X657991Y306998D01*
X655992D01*
X654992Y305998D01*
Y302000D01*
X655992Y301000D01*
X657991D01*
X658991Y302000D01*
Y303999D01*
X656992D01*
X660990Y306998D02*
Y301000D01*
X663989D01*
X664989Y302000D01*
Y302999D01*
X663989Y303999D01*
X660990D01*
X663989D01*
X664989Y304999D01*
Y305998D01*
X663989Y306998D01*
X660990D01*
X676985Y305998D02*
X675985Y306998D01*
X673986D01*
X672986Y305998D01*
Y302000D01*
X673986Y301000D01*
X675985D01*
X676985Y302000D01*
X679984Y301000D02*
X681984D01*
X682983Y302000D01*
Y303999D01*
X681984Y304999D01*
X679984D01*
X678984Y303999D01*
Y302000D01*
X679984Y301000D01*
X684982D02*
Y304999D01*
X687982D01*
X688981Y303999D01*
Y301000D01*
X691980Y305998D02*
Y304999D01*
X690981D01*
X692980D01*
X691980D01*
Y302000D01*
X692980Y301000D01*
X695979Y304999D02*
Y301000D01*
Y302999D01*
X696979Y303999D01*
X697978Y304999D01*
X698978D01*
X702977Y301000D02*
X704976D01*
X705976Y302000D01*
Y303999D01*
X704976Y304999D01*
X702977D01*
X701977Y303999D01*
Y302000D01*
X702977Y301000D01*
X707975D02*
X709974D01*
X708975D01*
Y306998D01*
X707975D01*
X718971D02*
Y302999D01*
X720971Y301000D01*
X722970Y302999D01*
Y306998D01*
X724970Y301000D02*
X726969D01*
X725969D01*
Y306998D01*
X724970Y305998D01*
X729968Y301000D02*
Y302000D01*
X730968D01*
Y301000D01*
X729968D01*
X734966Y305998D02*
X735966Y306998D01*
X737965D01*
X738965Y305998D01*
Y302000D01*
X737965Y301000D01*
X735966D01*
X734966Y302000D01*
Y305998D01*
X621000Y331000D02*
X622999D01*
X622000D01*
Y336998D01*
X621000Y335998D01*
X629997Y331000D02*
X625998D01*
X629997Y334999D01*
Y335998D01*
X628997Y336998D01*
X626998D01*
X625998Y335998D01*
X631996Y336998D02*
Y332999D01*
X633996Y331000D01*
X635995Y332999D01*
Y336998D01*
X599999Y335998D02*
X598999Y336998D01*
X597000D01*
X596000Y335998D01*
Y332000D01*
X597000Y331000D01*
X598999D01*
X599999Y332000D01*
Y333999D01*
X597999D01*
X601998Y331000D02*
Y336998D01*
X605997Y331000D01*
Y336998D01*
X607996D02*
Y331000D01*
X610995D01*
X611995Y332000D01*
Y335998D01*
X610995Y336998D01*
X607996D01*
X591300Y483698D02*
Y478700D01*
X592300Y477700D01*
X594299D01*
X595299Y478700D01*
Y483698D01*
X601297D02*
X599297Y482698D01*
X597298Y480699D01*
Y478700D01*
X598298Y477700D01*
X600297D01*
X601297Y478700D01*
Y479699D01*
X600297Y480699D01*
X597298D01*
X591300Y453698D02*
Y448700D01*
X592300Y447700D01*
X594299D01*
X595299Y448700D01*
Y453698D01*
X601297D02*
X597298D01*
Y450699D01*
X599297Y451699D01*
X600297D01*
X601297Y450699D01*
Y448700D01*
X600297Y447700D01*
X598298D01*
X597298Y448700D01*
X591300Y423698D02*
Y418700D01*
X592300Y417700D01*
X594299D01*
X595299Y418700D01*
Y423698D01*
X600297Y417700D02*
Y423698D01*
X597298Y420699D01*
X601297D01*
X155300Y430298D02*
Y425300D01*
X156300Y424300D01*
X158299D01*
X159299Y425300D01*
Y430298D01*
X161298Y429298D02*
X162298Y430298D01*
X164297D01*
X165297Y429298D01*
Y428299D01*
X164297Y427299D01*
X163297D01*
X164297D01*
X165297Y426299D01*
Y425300D01*
X164297Y424300D01*
X162298D01*
X161298Y425300D01*
X306300Y430298D02*
Y425300D01*
X307300Y424300D01*
X309299D01*
X310299Y425300D01*
Y430298D01*
X316297Y424300D02*
X312298D01*
X316297Y428299D01*
Y429298D01*
X315297Y430298D01*
X313298D01*
X312298Y429298D01*
X456000Y430298D02*
Y425300D01*
X457000Y424300D01*
X458999D01*
X459999Y425300D01*
Y430298D01*
X461998Y424300D02*
X463997D01*
X462998D01*
Y430298D01*
X461998Y429298D01*
X649500Y488500D02*
Y494498D01*
X652499D01*
X653499Y493498D01*
Y491499D01*
X652499Y490499D01*
X649500D01*
X651499D02*
X653499Y488500D01*
X659497Y494498D02*
X657497Y493498D01*
X655498Y491499D01*
Y489500D01*
X656498Y488500D01*
X658497D01*
X659497Y489500D01*
Y490499D01*
X658497Y491499D01*
X655498D01*
X649500Y428500D02*
Y434498D01*
X652499D01*
X653499Y433498D01*
Y431499D01*
X652499Y430499D01*
X649500D01*
X651499D02*
X653499Y428500D01*
X659497Y434498D02*
X655498D01*
Y431499D01*
X657497Y432499D01*
X658497D01*
X659497Y431499D01*
Y429500D01*
X658497Y428500D01*
X656498D01*
X655498Y429500D01*
X649500Y368500D02*
Y374498D01*
X652499D01*
X653499Y373498D01*
Y371499D01*
X652499Y370499D01*
X649500D01*
X651499D02*
X653499Y368500D01*
X658497D02*
Y374498D01*
X655498Y371499D01*
X659497D01*
X559500Y488500D02*
Y494498D01*
X562499D01*
X563499Y493498D01*
Y491499D01*
X562499Y490499D01*
X559500D01*
X561499D02*
X563499Y488500D01*
X565498Y493498D02*
X566498Y494498D01*
X568497D01*
X569497Y493498D01*
Y492499D01*
X568497Y491499D01*
X567497D01*
X568497D01*
X569497Y490499D01*
Y489500D01*
X568497Y488500D01*
X566498D01*
X565498Y489500D01*
X559500Y428500D02*
Y434498D01*
X562499D01*
X563499Y433498D01*
Y431499D01*
X562499Y430499D01*
X559500D01*
X561499D02*
X563499Y428500D01*
X569497D02*
X565498D01*
X569497Y432499D01*
Y433498D01*
X568497Y434498D01*
X566498D01*
X565498Y433498D01*
X559500Y368500D02*
Y374498D01*
X562499D01*
X563499Y373498D01*
Y371499D01*
X562499Y370499D01*
X559500D01*
X561499D02*
X563499Y368500D01*
X565498D02*
X567497D01*
X566498D01*
Y374498D01*
X565498Y373498D01*
X109099Y429798D02*
X107099D01*
X108099D01*
Y424800D01*
X107099Y423800D01*
X106100D01*
X105100Y424800D01*
X111098Y423800D02*
X113097D01*
X112098D01*
Y429798D01*
X111098Y428798D01*
X129000Y493498D02*
Y487500D01*
Y490499D01*
X132999D01*
Y493498D01*
Y487500D01*
X138997Y492498D02*
X137997Y493498D01*
X135998D01*
X134998Y492498D01*
Y491499D01*
X135998Y490499D01*
X137997D01*
X138997Y489499D01*
Y488500D01*
X137997Y487500D01*
X135998D01*
X134998Y488500D01*
X140996Y492498D02*
X141996Y493498D01*
X143995D01*
X144995Y492498D01*
Y491499D01*
X143995Y490499D01*
X142996D01*
X143995D01*
X144995Y489499D01*
Y488500D01*
X143995Y487500D01*
X141996D01*
X140996Y488500D01*
X279000Y493498D02*
Y487500D01*
Y490499D01*
X282999D01*
Y493498D01*
Y487500D01*
X288997Y492498D02*
X287997Y493498D01*
X285998D01*
X284998Y492498D01*
Y491499D01*
X285998Y490499D01*
X287997D01*
X288997Y489499D01*
Y488500D01*
X287997Y487500D01*
X285998D01*
X284998Y488500D01*
X294995Y487500D02*
X290996D01*
X294995Y491499D01*
Y492498D01*
X293995Y493498D01*
X291996D01*
X290996Y492498D01*
X429000Y493498D02*
Y487500D01*
Y490499D01*
X432999D01*
Y493498D01*
Y487500D01*
X438997Y492498D02*
X437997Y493498D01*
X435998D01*
X434998Y492498D01*
Y491499D01*
X435998Y490499D01*
X437997D01*
X438997Y489499D01*
Y488500D01*
X437997Y487500D01*
X435998D01*
X434998Y488500D01*
X440996Y487500D02*
X442996D01*
X441996D01*
Y493498D01*
X440996Y492498D01*
X673001Y491999D02*
X676999Y488001D01*
X673001D02*
X676999Y491999D01*
X673001Y490000D02*
X676999D01*
X675000Y488001D02*
Y491999D01*
D11*
X171167Y381385D02*
G03*
X171167Y381385I-492J0D01*
G01*
X322098D02*
G03*
X322098Y381385I-492J0D01*
G01*
X471808D02*
G03*
X471808Y381385I-492J0D01*
G01*
D12*
X154730Y420952D02*
X173234D01*
X154730Y378826D02*
X173234D01*
Y420952D01*
X154730Y378826D02*
Y420952D01*
X156699Y378826D02*
Y420952D01*
X305661D02*
X324165D01*
X305661Y378826D02*
X324165D01*
Y420952D01*
X305661Y378826D02*
Y420952D01*
X307629Y378826D02*
Y420952D01*
X455371D02*
X473875D01*
X455371Y378826D02*
X473875D01*
Y420952D01*
X455371Y378826D02*
Y420952D01*
X457340Y378826D02*
Y420952D01*
X615000Y400000D02*
X620000D01*
X615000D02*
Y410000D01*
X620000D01*
X600000Y400000D02*
X602500D01*
Y402500D01*
X605000Y405000D01*
X602500Y407500D02*
X605000Y405000D01*
X602500Y407500D02*
Y410000D01*
X600000D02*
X602500D01*
X605000Y402500D02*
Y407500D01*
X612500Y407000D02*
X617500D01*
X615000D02*
X617500Y403000D01*
X612500D02*
X617500D01*
X612500D02*
X615000Y407000D01*
X607500Y403500D02*
X610000Y401000D01*
X607500Y407500D02*
X610000Y405000D01*
X607500Y402500D02*
Y403500D01*
X608500D01*
X607500Y406500D02*
Y407500D01*
X608500D01*
X615000Y430000D02*
X620000D01*
X615000D02*
Y440000D01*
X620000D01*
X600000Y430000D02*
X602500D01*
Y432500D01*
X605000Y435000D01*
X602500Y437500D02*
X605000Y435000D01*
X602500Y437500D02*
Y440000D01*
X600000D02*
X602500D01*
X605000Y432500D02*
Y437500D01*
X612500Y437000D02*
X617500D01*
X615000D02*
X617500Y433000D01*
X612500D02*
X617500D01*
X612500D02*
X615000Y437000D01*
X607500Y433500D02*
X610000Y431000D01*
X607500Y437500D02*
X610000Y435000D01*
X607500Y432500D02*
Y433500D01*
X608500D01*
X607500Y436500D02*
Y437500D01*
X608500D01*
X115512Y379488D02*
Y420433D01*
X104488Y379488D02*
X115512D01*
X104488Y420433D02*
X115512D01*
X104488Y379488D02*
Y420433D01*
X615000Y460000D02*
X620000D01*
X615000D02*
Y470000D01*
X620000D01*
X600000Y460000D02*
X602500D01*
Y462500D01*
X605000Y465000D01*
X602500Y467500D02*
X605000Y465000D01*
X602500Y467500D02*
Y470000D01*
X600000D02*
X602500D01*
X605000Y462500D02*
Y467500D01*
X612500Y467000D02*
X617500D01*
X615000D02*
X617500Y463000D01*
X612500D02*
X617500D01*
X612500D02*
X615000Y467000D01*
X607500Y463500D02*
X610000Y461000D01*
X607500Y467500D02*
X610000Y465000D01*
X607500Y462500D02*
Y463500D01*
X608500D01*
X607500Y466500D02*
Y467500D01*
X608500D01*
M02*
