G04*
G04 #@! TF.GenerationSoftware,Altium Limited,CircuitMaker,2.2.1 (2.2.1.6)*
G04*
G04 Layer_Color=2752767*
%FSLAX25Y25*%
%MOIN*%
G70*
G04*
G04 #@! TF.SameCoordinates,7785A121-3EC8-4D8B-A962-A870CC3C064B*
G04*
G04*
G04 #@! TF.FilePolarity,Positive*
G04*
G01*
G75*
%ADD40C,0.00200*%
%ADD41C,0.00267*%
D40*
X704200Y344200D02*
Y345800D01*
X705800D01*
Y344200D01*
X704200D01*
Y459200D02*
Y460800D01*
X705800D01*
Y459200D01*
X704200D01*
X254200Y329200D02*
Y330800D01*
X255800D01*
Y329200D01*
X254200D01*
Y479200D02*
Y480800D01*
X255800D01*
Y479200D01*
X254200D01*
X630000Y319200D02*
X629200Y320800D01*
X630800D01*
X630000Y319200D01*
X605000D02*
X604200Y320800D01*
X605800D01*
X605000Y319200D01*
X165951Y409089D02*
X166351Y409489D01*
X166751D01*
X166351Y409889D01*
X166751Y410289D01*
X166351D01*
X165951Y410689D01*
X165551Y410289D01*
X165151D01*
X165551Y409889D01*
X165151Y409489D01*
X165551D01*
X165951Y409089D01*
Y399089D02*
X166351Y399489D01*
X166751D01*
X166351Y399889D01*
X166751Y400289D01*
X166351D01*
X165951Y400689D01*
X165551Y400289D01*
X165151D01*
X165551Y399889D01*
X165151Y399489D01*
X165551D01*
X165951Y399089D01*
Y389089D02*
X166351Y389489D01*
X166751D01*
X166351Y389889D01*
X166751Y390289D01*
X166351D01*
X165951Y390689D01*
X165551Y390289D01*
X165151D01*
X165551Y389889D01*
X165151Y389489D01*
X165551D01*
X165951Y389089D01*
X316881Y409089D02*
X317281Y409489D01*
X317681D01*
X317281Y409889D01*
X317681Y410289D01*
X317281D01*
X316881Y410689D01*
X316481Y410289D01*
X316081D01*
X316481Y409889D01*
X316081Y409489D01*
X316481D01*
X316881Y409089D01*
Y399089D02*
X317281Y399489D01*
X317681D01*
X317281Y399889D01*
X317681Y400289D01*
X317281D01*
X316881Y400689D01*
X316481Y400289D01*
X316081D01*
X316481Y399889D01*
X316081Y399489D01*
X316481D01*
X316881Y399089D01*
Y389089D02*
X317281Y389489D01*
X317681D01*
X317281Y389889D01*
X317681Y390289D01*
X317281D01*
X316881Y390689D01*
X316481Y390289D01*
X316081D01*
X316481Y389889D01*
X316081Y389489D01*
X316481D01*
X316881Y389089D01*
X466592Y409089D02*
X466992Y409489D01*
X467392D01*
X466992Y409889D01*
X467392Y410289D01*
X466992D01*
X466592Y410689D01*
X466192Y410289D01*
X465792D01*
X466192Y409889D01*
X465792Y409489D01*
X466192D01*
X466592Y409089D01*
Y399089D02*
X466992Y399489D01*
X467392D01*
X466992Y399889D01*
X467392Y400289D01*
X466992D01*
X466592Y400689D01*
X466192Y400289D01*
X465792D01*
X466192Y399889D01*
X465792Y399489D01*
X466192D01*
X466592Y399089D01*
Y389089D02*
X466992Y389489D01*
X467392D01*
X466992Y389889D01*
X467392Y390289D01*
X466992D01*
X466592Y390689D01*
X466192Y390289D01*
X465792D01*
X466192Y389889D01*
X465792Y389489D01*
X466192D01*
X466592Y389089D01*
X594201Y399201D02*
X594601Y400001D01*
X594201Y400801D01*
X595001Y400401D01*
X595801Y400801D01*
X595401Y400001D01*
X595801Y399201D01*
X595001Y399601D01*
X594201Y399201D01*
Y409201D02*
X594601Y410001D01*
X594201Y410801D01*
X595001Y410401D01*
X595801Y410801D01*
X595401Y410001D01*
X595801Y409201D01*
X595001Y409601D01*
X594201Y409201D01*
X624201D02*
X624601Y410001D01*
X624201Y410801D01*
X625001Y410401D01*
X625801Y410801D01*
X625401Y410001D01*
X625801Y409201D01*
X625001Y409601D01*
X624201Y409201D01*
Y399201D02*
X624601Y400001D01*
X624201Y400801D01*
X625001Y400401D01*
X625801Y400801D01*
X625401Y400001D01*
X625801Y399201D01*
X625001Y399601D01*
X624201Y399201D01*
X564600Y359600D02*
Y359200D01*
X565400D01*
Y359600D01*
X565800D01*
Y360400D01*
X565400D01*
Y360800D01*
X564600D01*
Y360400D01*
X564200D01*
Y359600D01*
X564600D01*
Y319600D02*
Y319200D01*
X565400D01*
Y319600D01*
X565800D01*
Y320400D01*
X565400D01*
Y320800D01*
X564600D01*
Y320400D01*
X564200D01*
Y319600D01*
X564600D01*
X654600Y359600D02*
Y359200D01*
X655400D01*
Y359600D01*
X655800D01*
Y360400D01*
X655400D01*
Y360800D01*
X654600D01*
Y360400D01*
X654200D01*
Y359600D01*
X654600D01*
Y319600D02*
Y319200D01*
X655400D01*
Y319600D01*
X655800D01*
Y320400D01*
X655400D01*
Y320800D01*
X654600D01*
Y320400D01*
X654200D01*
Y319600D01*
X654600D01*
X479200Y449200D02*
X479600D01*
X480000Y449600D01*
X480400Y449200D01*
X480800D01*
Y449600D01*
X480400Y450000D01*
X480800Y450400D01*
Y450800D01*
X480400D01*
X480000Y450400D01*
X479600Y450800D01*
X479200D01*
Y450400D01*
X479600Y450000D01*
X479200Y449600D01*
Y449200D01*
Y349200D02*
X479600D01*
X480000Y349600D01*
X480400Y349200D01*
X480800D01*
Y349600D01*
X480400Y350000D01*
X480800Y350400D01*
Y350800D01*
X480400D01*
X480000Y350400D01*
X479600Y350800D01*
X479200D01*
Y350400D01*
X479600Y350000D01*
X479200Y349600D01*
Y349200D01*
X594201Y429201D02*
X594601Y430001D01*
X594201Y430801D01*
X595001Y430401D01*
X595801Y430801D01*
X595401Y430001D01*
X595801Y429201D01*
X595001Y429601D01*
X594201Y429201D01*
Y439201D02*
X594601Y440001D01*
X594201Y440801D01*
X595001Y440401D01*
X595801Y440801D01*
X595401Y440001D01*
X595801Y439201D01*
X595001Y439601D01*
X594201Y439201D01*
X624201D02*
X624601Y440001D01*
X624201Y440801D01*
X625001Y440401D01*
X625801Y440801D01*
X625401Y440001D01*
X625801Y439201D01*
X625001Y439601D01*
X624201Y439201D01*
Y429201D02*
X624601Y430001D01*
X624201Y430801D01*
X625001Y430401D01*
X625801Y430801D01*
X625401Y430001D01*
X625801Y429201D01*
X625001Y429601D01*
X624201Y429201D01*
X564600Y419600D02*
Y419200D01*
X565400D01*
Y419600D01*
X565800D01*
Y420400D01*
X565400D01*
Y420800D01*
X564600D01*
Y420400D01*
X564200D01*
Y419600D01*
X564600D01*
Y379600D02*
Y379200D01*
X565400D01*
Y379600D01*
X565800D01*
Y380400D01*
X565400D01*
Y380800D01*
X564600D01*
Y380400D01*
X564200D01*
Y379600D01*
X564600D01*
X654600Y419600D02*
Y419200D01*
X655400D01*
Y419600D01*
X655800D01*
Y420400D01*
X655400D01*
Y420800D01*
X654600D01*
Y420400D01*
X654200D01*
Y419600D01*
X654600D01*
Y379600D02*
Y379200D01*
X655400D01*
Y379600D01*
X655800D01*
Y380400D01*
X655400D01*
Y380800D01*
X654600D01*
Y380400D01*
X654200D01*
Y379600D01*
X654600D01*
X110000Y414200D02*
X110400Y414600D01*
X110800D01*
X110400Y415000D01*
X110800Y415400D01*
X110400D01*
X110000Y415800D01*
X109600Y415400D01*
X109200D01*
X109600Y415000D01*
X109200Y414600D01*
X109600D01*
X110000Y414200D01*
Y404200D02*
X110400Y404600D01*
X110800D01*
X110400Y405000D01*
X110800Y405400D01*
X110400D01*
X110000Y405800D01*
X109600Y405400D01*
X109200D01*
X109600Y405000D01*
X109200Y404600D01*
X109600D01*
X110000Y404200D01*
Y394200D02*
X110400Y394600D01*
X110800D01*
X110400Y395000D01*
X110800Y395400D01*
X110400D01*
X110000Y395800D01*
X109600Y395400D01*
X109200D01*
X109600Y395000D01*
X109200Y394600D01*
X109600D01*
X110000Y394200D01*
Y384200D02*
X110400Y384600D01*
X110800D01*
X110400Y385000D01*
X110800Y385400D01*
X110400D01*
X110000Y385800D01*
X109600Y385400D01*
X109200D01*
X109600Y385000D01*
X109200Y384600D01*
X109600D01*
X110000Y384200D01*
X329200Y449200D02*
X329600D01*
X330000Y449600D01*
X330400Y449200D01*
X330800D01*
Y449600D01*
X330400Y450000D01*
X330800Y450400D01*
Y450800D01*
X330400D01*
X330000Y450400D01*
X329600Y450800D01*
X329200D01*
Y450400D01*
X329600Y450000D01*
X329200Y449600D01*
Y449200D01*
Y349200D02*
X329600D01*
X330000Y349600D01*
X330400Y349200D01*
X330800D01*
Y349600D01*
X330400Y350000D01*
X330800Y350400D01*
Y350800D01*
X330400D01*
X330000Y350400D01*
X329600Y350800D01*
X329200D01*
Y350400D01*
X329600Y350000D01*
X329200Y349600D01*
Y349200D01*
X594201Y459201D02*
X594601Y460001D01*
X594201Y460801D01*
X595001Y460401D01*
X595801Y460801D01*
X595401Y460001D01*
X595801Y459201D01*
X595001Y459601D01*
X594201Y459201D01*
Y469201D02*
X594601Y470001D01*
X594201Y470801D01*
X595001Y470401D01*
X595801Y470801D01*
X595401Y470001D01*
X595801Y469201D01*
X595001Y469601D01*
X594201Y469201D01*
X624201D02*
X624601Y470001D01*
X624201Y470801D01*
X625001Y470401D01*
X625801Y470801D01*
X625401Y470001D01*
X625801Y469201D01*
X625001Y469601D01*
X624201Y469201D01*
Y459201D02*
X624601Y460001D01*
X624201Y460801D01*
X625001Y460401D01*
X625801Y460801D01*
X625401Y460001D01*
X625801Y459201D01*
X625001Y459601D01*
X624201Y459201D01*
X564600Y439600D02*
Y439200D01*
X565400D01*
Y439600D01*
X565800D01*
Y440400D01*
X565400D01*
Y440800D01*
X564600D01*
Y440400D01*
X564200D01*
Y439600D01*
X564600D01*
Y479600D02*
Y479200D01*
X565400D01*
Y479600D01*
X565800D01*
Y480400D01*
X565400D01*
Y480800D01*
X564600D01*
Y480400D01*
X564200D01*
Y479600D01*
X564600D01*
X654600D02*
Y479200D01*
X655400D01*
Y479600D01*
X655800D01*
Y480400D01*
X655400D01*
Y480800D01*
X654600D01*
Y480400D01*
X654200D01*
Y479600D01*
X654600D01*
Y439600D02*
Y439200D01*
X655400D01*
Y439600D01*
X655800D01*
Y440400D01*
X655400D01*
Y440800D01*
X654600D01*
Y440400D01*
X654200D01*
Y439600D01*
X654600D01*
X179200Y449200D02*
X179600D01*
X180000Y449600D01*
X180400Y449200D01*
X180800D01*
Y449600D01*
X180400Y450000D01*
X180800Y450400D01*
Y450800D01*
X180400D01*
X180000Y450400D01*
X179600Y450800D01*
X179200D01*
Y450400D01*
X179600Y450000D01*
X179200Y449600D01*
Y449200D01*
Y349200D02*
X179600D01*
X180000Y349600D01*
X180400Y349200D01*
X180800D01*
Y349600D01*
X180400Y350000D01*
X180800Y350400D01*
Y350800D01*
X180400D01*
X180000Y350400D01*
X179600Y350800D01*
X179200D01*
Y350400D01*
X179600Y350000D01*
X179200Y349600D01*
Y349200D01*
Y410000D02*
X180000Y410800D01*
X180800Y410000D01*
X180000Y409200D01*
X179200Y410000D01*
X239200Y390000D02*
X240000Y390800D01*
X240800Y390000D01*
X240000Y389200D01*
X239200Y390000D01*
Y440000D02*
X240000Y440800D01*
X240800Y440000D01*
X240000Y439200D01*
X239200Y440000D01*
X109200Y305000D02*
X110000Y305800D01*
X110800Y305000D01*
X110000Y304200D01*
X109200Y305000D01*
X439200Y410000D02*
X440000Y410800D01*
X440800Y410000D01*
X440000Y409200D01*
X439200Y410000D01*
D41*
X735800Y340000D02*
G03*
X735800Y340000I-800J0D01*
G01*
Y350000D02*
G03*
X735800Y350000I-800J0D01*
G01*
Y360000D02*
G03*
X735800Y360000I-800J0D01*
G01*
Y370000D02*
G03*
X735800Y370000I-800J0D01*
G01*
Y380000D02*
G03*
X735800Y380000I-800J0D01*
G01*
Y390000D02*
G03*
X735800Y390000I-800J0D01*
G01*
Y400000D02*
G03*
X735800Y400000I-800J0D01*
G01*
Y410000D02*
G03*
X735800Y410000I-800J0D01*
G01*
Y420000D02*
G03*
X735800Y420000I-800J0D01*
G01*
Y430000D02*
G03*
X735800Y430000I-800J0D01*
G01*
Y440000D02*
G03*
X735800Y440000I-800J0D01*
G01*
Y450000D02*
G03*
X735800Y450000I-800J0D01*
G01*
Y460000D02*
G03*
X735800Y460000I-800J0D01*
G01*
Y470000D02*
G03*
X735800Y470000I-800J0D01*
G01*
Y480000D02*
G03*
X735800Y480000I-800J0D01*
G01*
X675800D02*
G03*
X675800Y480000I-800J0D01*
G01*
Y470000D02*
G03*
X675800Y470000I-800J0D01*
G01*
Y460000D02*
G03*
X675800Y460000I-800J0D01*
G01*
Y450000D02*
G03*
X675800Y450000I-800J0D01*
G01*
Y440000D02*
G03*
X675800Y440000I-800J0D01*
G01*
Y430000D02*
G03*
X675800Y430000I-800J0D01*
G01*
Y420000D02*
G03*
X675800Y420000I-800J0D01*
G01*
Y410000D02*
G03*
X675800Y410000I-800J0D01*
G01*
Y400000D02*
G03*
X675800Y400000I-800J0D01*
G01*
Y390000D02*
G03*
X675800Y390000I-800J0D01*
G01*
Y380000D02*
G03*
X675800Y380000I-800J0D01*
G01*
Y370000D02*
G03*
X675800Y370000I-800J0D01*
G01*
Y360000D02*
G03*
X675800Y360000I-800J0D01*
G01*
Y350000D02*
G03*
X675800Y350000I-800J0D01*
G01*
Y340000D02*
G03*
X675800Y340000I-800J0D01*
G01*
M02*
