G04*
G04 #@! TF.GenerationSoftware,Altium Limited,CircuitMaker,2.2.1 (2.2.1.6)*
G04*
G04 Layer_Physical_Order=2*
G04 Layer_Color=11436288*
%FSLAX25Y25*%
%MOIN*%
G70*
G04*
G04 #@! TF.SameCoordinates,7785A121-3EC8-4D8B-A962-A870CC3C064B*
G04*
G04*
G04 #@! TF.FilePolarity,Positive*
G04*
G01*
G75*
%ADD10C,0.01000*%
%ADD24C,0.05700*%
%ADD25C,0.15000*%
%ADD26C,0.23622*%
%ADD27C,0.07000*%
%ADD28C,0.08000*%
%ADD29C,0.06299*%
%ADD30R,0.06299X0.06299*%
%ADD31C,0.07500*%
%ADD32R,0.07500X0.07500*%
%ADD33C,0.15748*%
%ADD34C,0.07874*%
%ADD35R,0.07874X0.07874*%
%ADD36C,0.05000*%
%ADD37C,0.08300*%
%ADD38C,0.03200*%
D10*
X590000Y360000D02*
X630000Y320000D01*
X565000Y360000D02*
X590000D01*
X165951Y389889D02*
X166062Y390000D01*
X240000D01*
Y440000D02*
X485000D01*
X535000Y490000D01*
X575002D01*
X595001Y470001D01*
Y440001D02*
X600300Y434702D01*
Y396600D02*
Y434702D01*
X590200Y386500D02*
X600300Y396600D01*
X557500Y386500D02*
X590200D01*
X556200Y385200D02*
X557500Y386500D01*
X321570Y385200D02*
X556200D01*
X316881Y389889D02*
X321570Y385200D01*
X665000Y430000D02*
X675000D01*
X655000Y440000D02*
X665000Y430000D01*
X466592Y389889D02*
X574889D01*
X595001Y410001D01*
X575002Y480000D02*
X595001Y460001D01*
X565000Y480000D02*
X575002D01*
X635002Y420000D02*
X655000D01*
X625001Y430001D02*
X635002Y420000D01*
X625001Y470001D02*
X665001D01*
X670000Y475000D01*
X730000D01*
X735000Y470000D01*
X180000Y350000D02*
X330000D01*
X480000D01*
D24*
X110000Y305000D02*
Y385000D01*
D25*
X615000Y305000D02*
X630000Y320000D01*
X110000Y305000D02*
X615000D01*
D26*
X705000Y345000D02*
D03*
Y460000D02*
D03*
X255000Y330000D02*
D03*
Y480000D02*
D03*
D27*
X735000Y340000D02*
D03*
Y350000D02*
D03*
Y360000D02*
D03*
Y370000D02*
D03*
Y380000D02*
D03*
Y390000D02*
D03*
Y400000D02*
D03*
Y410000D02*
D03*
Y420000D02*
D03*
Y430000D02*
D03*
Y440000D02*
D03*
Y450000D02*
D03*
Y460000D02*
D03*
Y470000D02*
D03*
Y480000D02*
D03*
X675000D02*
D03*
Y470000D02*
D03*
Y460000D02*
D03*
Y450000D02*
D03*
Y440000D02*
D03*
Y430000D02*
D03*
Y420000D02*
D03*
Y410000D02*
D03*
Y400000D02*
D03*
Y390000D02*
D03*
Y380000D02*
D03*
Y370000D02*
D03*
Y360000D02*
D03*
Y350000D02*
D03*
Y340000D02*
D03*
X110000Y305000D02*
D03*
D28*
X630000Y320000D02*
D03*
X605000D02*
D03*
D29*
X165951Y409889D02*
D03*
Y399889D02*
D03*
X316881Y409889D02*
D03*
Y399889D02*
D03*
X466592Y409889D02*
D03*
Y399889D02*
D03*
D30*
X165951Y389889D02*
D03*
X316881D02*
D03*
X466592D02*
D03*
D31*
X595001Y400001D02*
D03*
Y410001D02*
D03*
X625001D02*
D03*
X565000Y360000D02*
D03*
Y320000D02*
D03*
X655000Y360000D02*
D03*
Y320000D02*
D03*
X595001Y430001D02*
D03*
Y440001D02*
D03*
X625001D02*
D03*
X565000Y420000D02*
D03*
Y380000D02*
D03*
X655000Y420000D02*
D03*
Y380000D02*
D03*
X595001Y460001D02*
D03*
Y470001D02*
D03*
X625001D02*
D03*
X565000Y440000D02*
D03*
Y480000D02*
D03*
X655000D02*
D03*
Y440000D02*
D03*
D32*
X625001Y400001D02*
D03*
Y430001D02*
D03*
Y460001D02*
D03*
D33*
X480000Y450000D02*
D03*
Y350000D02*
D03*
X330000Y450000D02*
D03*
Y350000D02*
D03*
X180000Y450000D02*
D03*
Y350000D02*
D03*
D34*
X110000Y415000D02*
D03*
Y405000D02*
D03*
Y395000D02*
D03*
D35*
Y385000D02*
D03*
D36*
X180000Y410000D02*
D03*
X240000Y390000D02*
D03*
Y440000D02*
D03*
X440000Y410000D02*
D03*
D37*
X316881Y409889D02*
X466592D01*
D38*
X165951D02*
X316881D01*
X115111Y399889D02*
X165951D01*
X110000Y405000D02*
X115111Y399889D01*
X110000Y395000D02*
X126200D01*
X139500Y381700D01*
X298692D01*
X316881Y399889D01*
X110000Y415000D02*
X112639Y417639D01*
X472000D01*
X474341Y415297D01*
Y404000D02*
Y415297D01*
X470230Y399889D02*
X474341Y404000D01*
X466592Y399889D02*
X470230D01*
M02*
