G04*
G04 #@! TF.GenerationSoftware,Altium Limited,CircuitMaker,2.2.1 (2.2.1.6)*
G04*
G04 Layer_Color=8150272*
%FSLAX25Y25*%
%MOIN*%
G70*
G04*
G04 #@! TF.SameCoordinates,7785A121-3EC8-4D8B-A962-A870CC3C064B*
G04*
G04*
G04 #@! TF.FilePolarity,Negative*
G04*
G01*
G75*
%ADD13C,0.24422*%
%ADD14C,0.07800*%
%ADD15C,0.08800*%
%ADD16C,0.07099*%
%ADD17R,0.07099X0.07099*%
%ADD18C,0.08300*%
%ADD19R,0.08300X0.08300*%
%ADD20C,0.16548*%
%ADD21C,0.08674*%
%ADD22R,0.08674X0.08674*%
%ADD23C,0.05800*%
D13*
X705000Y345000D02*
D03*
Y460000D02*
D03*
X255000Y330000D02*
D03*
Y480000D02*
D03*
D14*
X735000Y340000D02*
D03*
Y350000D02*
D03*
Y360000D02*
D03*
Y370000D02*
D03*
Y380000D02*
D03*
Y390000D02*
D03*
Y400000D02*
D03*
Y410000D02*
D03*
Y420000D02*
D03*
Y430000D02*
D03*
Y440000D02*
D03*
Y450000D02*
D03*
Y460000D02*
D03*
Y470000D02*
D03*
Y480000D02*
D03*
X675000D02*
D03*
Y470000D02*
D03*
Y460000D02*
D03*
Y450000D02*
D03*
Y440000D02*
D03*
Y430000D02*
D03*
Y420000D02*
D03*
Y410000D02*
D03*
Y400000D02*
D03*
Y390000D02*
D03*
Y380000D02*
D03*
Y370000D02*
D03*
Y360000D02*
D03*
Y350000D02*
D03*
Y340000D02*
D03*
X110000Y305000D02*
D03*
D15*
X630000Y320000D02*
D03*
X605000D02*
D03*
D16*
X165951Y409889D02*
D03*
Y399889D02*
D03*
X316881Y409889D02*
D03*
Y399889D02*
D03*
X466592Y409889D02*
D03*
Y399889D02*
D03*
D17*
X165951Y389889D02*
D03*
X316881D02*
D03*
X466592D02*
D03*
D18*
X595001Y400001D02*
D03*
Y410001D02*
D03*
X625001D02*
D03*
X565000Y360000D02*
D03*
Y320000D02*
D03*
X655000Y360000D02*
D03*
Y320000D02*
D03*
X595001Y430001D02*
D03*
Y440001D02*
D03*
X625001D02*
D03*
X565000Y420000D02*
D03*
Y380000D02*
D03*
X655000Y420000D02*
D03*
Y380000D02*
D03*
X595001Y460001D02*
D03*
Y470001D02*
D03*
X625001D02*
D03*
X565000Y440000D02*
D03*
Y480000D02*
D03*
X655000D02*
D03*
Y440000D02*
D03*
D19*
X625001Y400001D02*
D03*
Y430001D02*
D03*
Y460001D02*
D03*
D20*
X480000Y450000D02*
D03*
Y350000D02*
D03*
X330000Y450000D02*
D03*
Y350000D02*
D03*
X180000Y450000D02*
D03*
Y350000D02*
D03*
D21*
X110000Y415000D02*
D03*
Y405000D02*
D03*
Y395000D02*
D03*
D22*
Y385000D02*
D03*
D23*
X180000Y410000D02*
D03*
X240000Y390000D02*
D03*
Y440000D02*
D03*
X440000Y410000D02*
D03*
M02*
