M48
;Layer_Color=6321
;FILE_FORMAT=2:4
INCH,TZ
;TYPE=PLATED
T1F00S00C0.0276
T2F00S00C0.0280
T3F00S00C0.0350
T4F00S00C0.0354
T5F00S00C0.0394
T6F00S00C0.0500
T7F00S00C0.1051
%
T01
X59500Y40000
Y41000
Y43000
Y44000
Y46000
X62500
Y44000
Y43000
Y41000
Y40000
Y47000
X59500
T02
X11000Y30500
X18000Y41000
X24000Y39000
Y44000
X44000Y41000
T03
X67500Y34000
Y35000
Y36000
Y37000
Y38000
Y39000
Y40000
Y41000
Y42000
Y43000
Y44000
Y45000
Y46000
X73500
Y45000
Y44000
Y43000
Y42000
Y41000
Y40000
Y39000
Y38000
Y37000
Y36000
Y35000
Y34000
Y47000
Y48000
X67500
Y47000
T04
X56500Y32000
Y36000
X56500Y38000
Y42000
X56500Y44000
X65500
Y42000
Y38000
Y36000
Y32000
Y48000
X56500
T05
X11000Y38500
Y39500
Y40500
Y41500
X16595Y40989
Y39989
Y38989
X31688
Y39989
Y40989
X46659
Y39989
Y38989
T06
X60500Y32000
X63000
T07
X18000Y35000
Y45000
X33000
Y35000
X48000
Y45000
M30
